<?xml version="1.0" encoding="UTF-8" standalone="no"?>
<!-- Created with Inkscape (http://www.inkscape.org/) -->

<svg
   xmlns:dc="http://purl.org/dc/elements/1.1/"
   xmlns:cc="http://creativecommons.org/ns#"
   xmlns:rdf="http://www.w3.org/1999/02/22-rdf-syntax-ns#"
   xmlns:svg="http://www.w3.org/2000/svg"
   xmlns="http://www.w3.org/2000/svg"
   xmlns:sodipodi="http://sodipodi.sourceforge.net/DTD/sodipodi-0.dtd"
   xmlns:inkscape="http://www.inkscape.org/namespaces/inkscape"
   version="1.1"
   id="svg2"
   xml:space="preserve"
   width="413.04001"
   height="295.88"
   viewBox="0 0 413.04001 295.88"
   sodipodi:docname="autocollant.svg"
   inkscape:version="0.92.2 (5c3e80d, 2017-08-06)"><metadata
     id="metadata8"><rdf:RDF><cc:Work
         rdf:about=""><dc:format>image/svg+xml</dc:format><dc:type
           rdf:resource="http://purl.org/dc/dcmitype/StillImage" /><dc:title></dc:title></cc:Work></rdf:RDF></metadata><defs
     id="defs6"><linearGradient
       x1="0"
       y1="0"
       x2="1"
       y2="0"
       gradientUnits="userSpaceOnUse"
       gradientTransform="matrix(-15.750051,-183.75008,-183.75008,15.750051,162.76367,202.81006)"
       spreadMethod="pad"
       id="linearGradient28"><stop
         style="stop-opacity:1;stop-color:#393536"
         offset="0"
         id="stop24" /><stop
         style="stop-opacity:1;stop-color:#231f20"
         offset="1"
         id="stop26" /></linearGradient><clipPath
       clipPathUnits="userSpaceOnUse"
       id="clipPath38"><path
         d="M 18.827,203.083 H 290.954 V 18.826 H 18.827 Z"
         id="path36"
         inkscape:connector-curvature="0" /></clipPath></defs><sodipodi:namedview
     pagecolor="#ffffff"
     bordercolor="#666666"
     borderopacity="1"
     objecttolerance="10"
     gridtolerance="10"
     guidetolerance="10"
     inkscape:pageopacity="0"
     inkscape:pageshadow="2"
     inkscape:window-width="1920"
     inkscape:window-height="986"
     id="namedview4"
     showgrid="false"
     inkscape:zoom="2.2560119"
     inkscape:cx="118.77026"
     inkscape:cy="138.88774"
     inkscape:window-x="0"
     inkscape:window-y="329"
     inkscape:window-maximized="1"
     inkscape:current-layer="g10" /><g
     id="g10"
     inkscape:groupmode="layer"
     inkscape:label="autocollant copie"
     transform="matrix(1.3333333,0,0,-1.3333333,0,295.88)"><g
       id="g12"><g
         id="g14"><g
           id="g20"><g
             id="g22"><path
               d="M 18.876,18.83 H 290.905 V 203.081 H 18.876 Z"
               style="fill:url(#linearGradient28);stroke:none"
               id="path30"
               inkscape:connector-curvature="0" /></g></g></g></g><g
       id="g40"
       transform="translate(218.3906,159.8594)"><path
         d="m 0,0 c 1.67,-0.02 2.996,-1.003 3.467,-2.495 0.459,-1.448 -0.061,-3.023 -1.293,-3.94 -0.729,-0.54 -1.555,-0.684 -2.44,-0.681 -3.568,0.01 -7.14,0.014 -10.709,10e-4 -3.941,-0.015 -7.683,-0.895 -11.054,-2.951 -7.606,-4.643 -11.418,-11.478 -11.016,-20.387 0.473,-10.481 8.609,-19.158 19.008,-20.49 5.785,-0.745 11.047,0.75 15.629,4.339 3.613,2.832 5.285,6.776 5.752,11.246 0.16,1.527 0.22,3.115 -0.014,4.623 -0.496,3.199 -3.59,5.082 -6.744,4.294 -1.258,-0.314 -1.82,-1.138 -1.906,-2.795 -0.08,-1.514 -1.008,-2.76 -2.399,-3.224 -2.326,-0.775 -4.672,0.926 -4.707,3.414 -0.066,4.787 3.016,8.6 7.774,9.571 5.966,1.219 13.914,-1.472 15.054,-10.706 1.358,-11.007 -3.703,-21.991 -16.513,-26.467 -16.752,-5.858 -34.225,5.182 -37.522,21.671 -3.16,15.809 6.903,31.068 22.688,34.378 0.65,0.137 1.304,0.284 1.965,0.321 C -12.256,-0.122 -2.266,0.027 0,0"
         style="fill:#ffffff;fill-opacity:1;fill-rule:evenodd;stroke:none"
         id="path42"
         inkscape:connector-curvature="0" /></g><g
       id="g44"
       transform="translate(140.4863,152.7471)"><path
         d="m 0,0 v -1.052 c 0,-15.264 0.002,-30.53 -0.008,-45.793 0,-0.584 -0.04,-1.193 -0.205,-1.746 -0.474,-1.597 -2.059,-2.621 -3.687,-2.463 -1.695,0.168 -3.011,1.463 -3.196,3.16 -0.037,0.341 -0.047,0.688 -0.047,1.032 -0.002,16.593 -0.003,33.187 0.004,49.781 0.001,0.537 0.02,1.094 0.156,1.608 0.415,1.567 1.796,2.582 3.538,2.587 6.376,0.014 12.756,0.13 19.129,-0.036 5.002,-0.13 9.459,-1.836 12.757,-5.813 2.729,-3.29 3.68,-7.182 3.405,-11.375 -0.239,-3.613 -1.393,-6.927 -3.649,-9.805 -1.486,-1.897 -3.357,-3.302 -5.568,-4.259 -0.219,-0.095 -0.436,-0.196 -0.709,-0.32 1.723,-2.296 3.402,-4.536 5.084,-6.776 3.484,-4.645 6.971,-9.29 10.457,-13.933 0.926,-1.234 1.139,-2.556 0.414,-3.94 -0.676,-1.288 -1.795,-1.938 -3.25,-1.909 -1.273,0.026 -2.207,0.688 -2.959,1.692 -3.592,4.812 -7.199,9.61 -10.803,14.413 -2.687,3.583 -5.384,7.157 -8.059,10.749 -1.217,1.634 -1.062,3.694 0.479,4.88 0.62,0.479 1.487,0.696 2.278,0.878 0.783,0.179 1.625,0.088 2.414,0.247 3.586,0.717 5.812,3.156 6.576,7.077 0.306,1.572 0.304,3.133 -0.065,4.683 -0.873,3.678 -3.498,5.419 -6.963,6.156 -0.907,0.193 -1.854,0.26 -2.783,0.265 C 10.16,0.015 5.581,0 1.002,0 Z"
         style="fill:#ffffff;fill-opacity:1;fill-rule:evenodd;stroke:none"
         id="path46"
         inkscape:connector-curvature="0" /></g><g
       id="g48"
       transform="translate(127.6714,126.2593)"><path
         d="m 0,0 c 0,-2.955 0.134,-5.916 -0.031,-8.862 -0.26,-4.655 -1.873,-8.784 -5.441,-11.96 -2.868,-2.553 -6.331,-3.636 -10.097,-3.73 -3.543,-0.088 -7.099,-0.182 -10.634,0.015 -5.709,0.317 -10.568,2.42 -13.735,7.483 -1.607,2.573 -2.23,5.448 -2.271,8.443 -0.054,3.916 0.83,7.569 3.333,10.692 2.625,3.275 6.158,4.971 10.205,5.682 1.227,0.216 2.492,0.279 3.742,0.297 2.88,0.041 5.761,0.031 8.641,0.004 1.897,-0.018 3.353,-1.404 3.542,-3.294 0.167,-1.672 -1.015,-3.291 -2.739,-3.708 -0.353,-0.085 -0.73,-0.091 -1.097,-0.092 -2.954,-0.006 -5.909,0.007 -8.863,-0.008 -1.718,-0.008 -3.366,-0.383 -4.931,-1.091 -2.815,-1.272 -4.338,-3.515 -4.597,-6.535 -0.123,-1.428 -0.084,-2.924 0.204,-4.323 0.755,-3.664 3.389,-5.428 6.83,-6.175 0.976,-0.212 1.997,-0.283 3,-0.296 2.757,-0.042 5.515,-0.047 8.272,10e-4 1.099,0.019 2.224,0.102 3.289,0.356 3.477,0.83 5.194,3.334 5.953,6.621 0.219,0.949 0.307,1.947 0.313,2.923 0.028,5.243 0.032,10.488 0.003,15.731 -0.022,3.923 -1.873,6.693 -5.446,7.926 -1.371,0.473 -2.871,0.748 -4.32,0.786 -3.986,0.105 -7.976,0.034 -11.964,0.037 -2.195,0.001 -3.811,1.515 -3.803,3.55 0.008,2.031 1.633,3.548 3.819,3.55 4.16,0.004 8.324,0.11 12.481,-0.025 5.292,-0.173 9.92,-1.959 13.273,-6.282 2.043,-2.634 2.96,-5.706 3.052,-9.001 C 0.064,5.812 0,2.905 0,0"
         style="fill:#ffffff;fill-opacity:1;fill-rule:evenodd;stroke:none"
         id="path50"
         inkscape:connector-curvature="0" /></g><g
       id="g52"
       transform="translate(54.2539,108.7871)"><path
         d="m 0,0 h 0.96 c 8.074,0 16.147,0.002 24.221,-0.002 1.439,-0.002 2.512,-0.667 3.163,-1.926 0.655,-1.263 0.541,-2.527 -0.28,-3.693 -0.682,-0.969 -1.657,-1.473 -2.834,-1.475 -9.6,-0.011 -19.199,-0.015 -28.799,0 -2.027,0.002 -3.532,1.59 -3.535,3.67 -0.009,5.933 -0.003,11.864 -0.003,17.797 0,10.978 -0.002,21.956 0.002,32.934 0,1.996 1.181,3.406 3.084,3.72 1.945,0.32 3.894,-1.235 4.011,-3.208 C 0.009,47.498 0,47.178 0,46.857 0,31.597 0,16.335 0,1.074 Z"
         style="fill:#ffffff;fill-opacity:1;fill-rule:evenodd;stroke:none"
         id="path54"
         inkscape:connector-curvature="0" /></g><g
       id="g56"
       transform="translate(263.5996,103.8213)"><path
         d="m 0,0 c -9.787,0.534 -17.883,7.793 -19.322,17.45 -0.27,1.793 -0.207,3.633 -0.348,5.448 -0.391,5.031 -2.062,9.499 -5.894,12.96 -3,2.711 -6.588,4.268 -10.512,5.04 -4.223,0.832 -8.455,0.974 -12.621,-0.35 -3.145,-0.998 -5.754,-2.745 -7.537,-5.598 -0.498,-0.798 -1.327,-1.008 -2.028,-0.581 -0.72,0.438 -0.89,1.296 -0.375,2.126 2.211,3.564 5.426,5.892 9.426,6.876 9.008,2.213 17.463,0.955 24.897,-4.865 4.113,-3.217 6.322,-7.661 7.146,-12.77 0.293,-1.814 0.418,-3.669 0.447,-5.507 C -16.592,11.557 -9.852,4.028 -1.236,3.019 -0.529,2.937 0.186,2.915 0.896,2.87 1.82,2.813 2.447,2.226 2.445,1.419 2.443,0.569 1.783,-0.003 0.812,0 0.541,0.001 0.271,0 0,0"
         style="fill:#ffffff;fill-opacity:1;fill-rule:evenodd;stroke:none"
         id="path58"
         inkscape:connector-curvature="0" /></g><g
       id="g60"
       transform="translate(245.125,172.604)"><path
         d="m 0,0 c 3.012,-0.001 4.691,-2.738 3.479,-5.201 -1.856,-3.771 -3.756,-7.518 -5.637,-11.276 -0.197,-0.396 -0.395,-0.793 -0.594,-1.187 -1.019,-2.004 -3.082,-2.758 -4.939,-1.804 -1.807,0.927 -2.407,3.023 -1.416,5.01 1.334,2.685 2.683,5.361 4.027,8.042 0.738,1.472 1.461,2.951 2.213,4.416 0.666,1.294 1.748,1.952 2.867,2"
         style="fill:#ffffff;fill-opacity:1;fill-rule:evenodd;stroke:none"
         id="path62"
         inkscape:connector-curvature="0" /></g><g
       id="g64"
       transform="translate(263.5234,84.6855)"><path
         d="m 0,0 c -12.865,0.695 -23.283,6.031 -31.062,16.373 -0.59,0.785 -0.495,1.648 0.181,2.154 0.694,0.518 1.539,0.325 2.158,-0.511 C -23.65,11.183 -17.025,6.589 -8.854,4.229 -5.645,3.302 -2.361,2.888 0.975,2.83 2.031,2.812 2.691,2.051 2.473,1.12 2.314,0.442 1.873,0.059 1.182,0.004 0.789,-0.025 0.395,0 0,0"
         style="fill:#ffffff;fill-opacity:1;fill-rule:evenodd;stroke:none"
         id="path66"
         inkscape:connector-curvature="0" /></g><g
       id="g68"
       transform="translate(263.4922,94.2676)"><path
         d="m 0,0 c -12.221,0.976 -21.16,6.786 -26.471,17.946 -0.424,0.888 -0.133,1.697 0.666,2.048 0.78,0.343 1.543,0.006 1.957,-0.907 2.596,-5.736 6.655,-10.111 12.207,-13.076 C -7.73,3.924 -3.543,2.892 0.887,2.838 1.969,2.824 2.664,2.14 2.535,1.225 2.434,0.514 1.92,0.04 1.182,0.004 0.789,-0.017 0.395,0 0,0"
         style="fill:#ffffff;fill-opacity:1;fill-rule:evenodd;stroke:none"
         id="path70"
         inkscape:connector-curvature="0" /></g><g
       id="g72"
       transform="translate(49.2344,93.3213)"><path
         d="M 0,0 H 2.035 L 0.801,-8.92 h 3.345 l -0.235,-1.853 h -5.383 z"
         style="fill:#ffffff;fill-opacity:1;fill-rule:nonzero;stroke:none"
         id="path74"
         inkscape:connector-curvature="0" /></g><g
       id="g76"
       transform="translate(63.0117,86.7451)"><path
         d="M 0,0 -0.861,3.548 -2.759,0 Z M -1.359,6.576 H 0.347 L 3.031,-4.197 H 1.068 l -0.571,2.293 h -4.274 l -1.226,-2.293 h -2.176 z"
         style="fill:#ffffff;fill-opacity:1;fill-rule:nonzero;stroke:none"
         id="path78"
         inkscape:connector-curvature="0" /></g><g
       id="g80"
       transform="translate(79.186,89.0146)"><path
         d="m 0,0 c 1.095,0.005 1.807,0.119 2.137,0.341 0.331,0.222 0.496,0.555 0.496,1 0,0.254 -0.067,0.466 -0.199,0.638 C 2.301,2.148 2.11,2.269 1.86,2.337 1.609,2.405 1.101,2.439 0.335,2.439 Z m -1.439,4.307 h 1.871 c 1.155,0 1.968,-0.1 2.439,-0.3 C 3.458,3.758 3.901,3.413 4.199,2.971 4.498,2.529 4.647,2.006 4.647,1.4 4.647,0.654 4.425,0.014 3.982,-0.521 3.539,-1.056 2.869,-1.428 1.972,-1.638 L 4.317,-6.467 H 2.223 l -2.3,4.702 h -0.166 l -0.646,-4.702 h -2.023 z"
         style="fill:#ffffff;fill-opacity:1;fill-rule:nonzero;stroke:none"
         id="path82"
         inkscape:connector-curvature="0" /></g><g
       id="g84"
       transform="translate(93.5313,86.7451)"><path
         d="M 0,0 -0.861,3.548 -2.759,0 Z M -1.359,6.576 H 0.347 L 3.031,-4.197 H 1.068 l -0.571,2.293 h -4.274 l -1.226,-2.293 h -2.176 z"
         style="fill:#ffffff;fill-opacity:1;fill-rule:nonzero;stroke:none"
         id="path86"
         inkscape:connector-curvature="0" /></g><g
       id="g88"
       transform="translate(103.5586,91.4248)"><path
         d="m 0,0 -0.948,-6.994 h 0.666 c 1.024,0 1.765,0.085 2.223,0.256 0.644,0.244 1.161,0.661 1.551,1.252 0.39,0.59 0.586,1.321 0.586,2.19 0,0.713 -0.138,1.31 -0.412,1.791 C 3.392,-1.024 3.005,-0.653 2.505,-0.392 2.005,-0.131 1.34,0 0.51,0 Z m -1.774,1.896 h 1.707 C 1.534,1.896 2.724,1.708 3.505,1.329 4.286,0.951 4.921,0.356 5.41,-0.454 5.898,-1.265 6.143,-2.2 6.143,-3.26 6.143,-4.349 5.883,-5.348 5.363,-6.259 4.843,-7.169 4.187,-7.833 3.396,-8.251 2.605,-8.668 1.507,-8.877 0.101,-8.877 h -3.348 z"
         style="fill:#ffffff;fill-opacity:1;fill-rule:nonzero;stroke:none"
         id="path90"
         inkscape:connector-curvature="0" /></g><g
       id="g92"
       transform="translate(114.374,93.3213)"><path
         d="M 0,0 H 1.979 L 0.469,-10.773 H -1.472 Z"
         style="fill:#ffffff;fill-opacity:1;fill-rule:nonzero;stroke:none"
         id="path94"
         inkscape:connector-curvature="0" /></g><g
       id="g96"
       transform="translate(125.6973,91.6807)"><path
         d="m 0,0 c -0.771,0 -1.476,-0.187 -2.113,-0.56 -0.637,-0.374 -1.151,-0.911 -1.542,-1.611 -0.39,-0.701 -0.586,-1.425 -0.586,-2.172 0,-0.884 0.271,-1.634 0.813,-2.249 0.542,-0.615 1.321,-0.922 2.337,-0.922 1.176,0 2.176,0.414 2.999,1.244 0.822,0.831 1.234,1.839 1.234,3.026 0,0.981 -0.289,1.767 -0.868,2.358 C 1.696,-0.295 0.937,0 0,0 m 0.073,1.912 c 1.48,0 2.7,-0.476 3.662,-1.428 0.962,-0.953 1.443,-2.161 1.443,-3.626 0,-1.123 -0.284,-2.181 -0.853,-3.174 C 3.756,-7.311 3,-8.073 2.054,-8.605 1.11,-9.138 0.024,-9.404 -1.201,-9.404 c -1.533,0 -2.757,0.455 -3.674,1.363 -0.915,0.908 -1.373,2.104 -1.373,3.588 0,1.685 0.547,3.133 1.641,4.344 1.221,1.347 2.781,2.021 4.68,2.021"
         style="fill:#ffffff;fill-opacity:1;fill-rule:nonzero;stroke:none"
         id="path98"
         inkscape:connector-curvature="0" /></g><g
       id="g100"
       transform="translate(143.7529,91.4248)"><path
         d="m 0,0 -0.948,-6.994 h 0.666 c 1.024,0 1.765,0.085 2.223,0.256 0.644,0.244 1.161,0.661 1.551,1.252 0.39,0.59 0.586,1.321 0.586,2.19 0,0.713 -0.138,1.31 -0.412,1.791 C 3.392,-1.024 3.005,-0.653 2.505,-0.392 2.005,-0.131 1.34,0 0.51,0 Z m -1.774,1.896 h 1.707 C 1.534,1.896 2.724,1.708 3.505,1.329 4.286,0.951 4.921,0.356 5.41,-0.454 5.898,-1.265 6.143,-2.2 6.143,-3.26 6.143,-4.349 5.883,-5.348 5.363,-6.259 4.843,-7.169 4.187,-7.833 3.396,-8.251 2.605,-8.668 1.507,-8.877 0.101,-8.877 h -3.348 z"
         style="fill:#ffffff;fill-opacity:1;fill-rule:nonzero;stroke:none"
         id="path102"
         inkscape:connector-curvature="0" /></g><g
       id="g104"
       transform="translate(154.583,93.3213)"><path
         d="M 0,0 H 2.016 L 1.114,-6.65 C 1.036,-7.231 0.997,-7.642 0.997,-7.881 c 0,-0.405 0.126,-0.721 0.378,-0.948 0.251,-0.227 0.616,-0.341 1.095,-0.341 0.386,0 0.722,0.086 1.011,0.257 0.215,0.127 0.387,0.338 0.517,0.634 0.13,0.295 0.255,0.883 0.378,1.761 L 5.267,0 H 7.304 L 6.433,-6.431 c -0.18,-1.323 -0.418,-2.272 -0.711,-2.848 -0.293,-0.576 -0.717,-1.015 -1.27,-1.315 -0.555,-0.301 -1.23,-0.451 -2.025,-0.451 -1.075,0 -1.913,0.286 -2.513,0.857 -0.601,0.572 -0.901,1.353 -0.901,2.344 0,0.43 0.058,1.065 0.175,1.905 z"
         style="fill:#ffffff;fill-opacity:1;fill-rule:nonzero;stroke:none"
         id="path106"
         inkscape:connector-curvature="0" /></g><g
       id="g108"
       transform="translate(182.1074,91.3096)"><path
         d="m 0,0 -1.686,-1.094 c -0.488,0.557 -0.959,0.945 -1.414,1.161 -0.453,0.218 -0.968,0.327 -1.545,0.327 -1.244,0 -2.257,-0.501 -3.039,-1.501 -0.621,-0.797 -0.929,-1.681 -0.929,-2.653 0,-0.957 0.318,-1.76 0.955,-2.409 0.637,-0.649 1.422,-0.974 2.355,-0.974 0.692,0 1.324,0.167 1.893,0.503 0.568,0.336 1.033,0.839 1.394,1.511 h -3.361 l 0.25,1.912 H 0.322 C 0.242,-5 -0.314,-6.414 -1.352,-7.462 c -1.039,-1.047 -2.361,-1.571 -3.966,-1.571 -1.748,0 -3.123,0.605 -4.123,1.816 -0.807,0.972 -1.209,2.129 -1.209,3.473 0,1.635 0.589,3.049 1.769,4.24 1.178,1.191 2.584,1.787 4.215,1.787 0.605,0 1.195,-0.088 1.771,-0.264 C -2.318,1.843 -1.799,1.596 -1.334,1.277 -0.871,0.959 -0.426,0.534 0,0"
         style="fill:#ffffff;fill-opacity:1;fill-rule:nonzero;stroke:none"
         id="path110"
         inkscape:connector-curvature="0" /></g><g
       id="g112"
       transform="translate(192.4414,91.6807)"><path
         d="M 0,0 C -0.771,0 -1.477,-0.187 -2.113,-0.56 -2.75,-0.934 -3.264,-1.471 -3.654,-2.171 -4.045,-2.872 -4.24,-3.596 -4.24,-4.343 c 0,-0.884 0.271,-1.634 0.812,-2.249 0.543,-0.615 1.321,-0.922 2.336,-0.922 1.178,0 2.178,0.414 3,1.244 0.822,0.831 1.235,1.839 1.235,3.026 0,0.981 -0.289,1.767 -0.87,2.358 C 1.695,-0.295 0.937,0 0,0 m 0.074,1.912 c 1.479,0 2.699,-0.476 3.662,-1.428 0.961,-0.953 1.442,-2.161 1.442,-3.626 0,-1.123 -0.283,-2.181 -0.854,-3.174 C 3.756,-7.311 3,-8.073 2.055,-8.605 1.109,-9.138 0.023,-9.404 -1.201,-9.404 c -1.533,0 -2.758,0.455 -3.674,1.363 -0.914,0.908 -1.373,2.104 -1.373,3.588 0,1.685 0.547,3.133 1.641,4.344 1.22,1.347 2.781,2.021 4.681,2.021"
         style="fill:#ffffff;fill-opacity:1;fill-rule:nonzero;stroke:none"
         id="path114"
         inkscape:connector-curvature="0" /></g><g
       id="g116"
       transform="translate(202.3652,93.3213)"><path
         d="M 0,0 H 2.035 L 0.801,-8.92 H 4.145 L 3.91,-10.773 h -5.383 z"
         style="fill:#ffffff;fill-opacity:1;fill-rule:nonzero;stroke:none"
         id="path118"
         inkscape:connector-curvature="0" /></g><g
       id="g120"
       transform="translate(211.0059,93.3213)"><path
         d="M 0,0 H 5.252 L 5.004,-1.911 H 1.793 L 1.469,-4.138 H 4.715 L 4.469,-6.035 H 1.223 l -0.657,-4.738 h -2.037 z"
         style="fill:#ffffff;fill-opacity:1;fill-rule:nonzero;stroke:none"
         id="path122"
         inkscape:connector-curvature="0" /></g><g
       id="g124"
       transform="translate(220.3672,93.3213)"><path
         d="M 0,0 H 5.793 L 5.545,-1.911 H 1.785 L 1.477,-4.138 H 5.256 L 5.01,-6.035 H 1.215 L 0.818,-8.891 h 3.821 l -0.244,-1.882 h -5.868 z"
         style="fill:#ffffff;fill-opacity:1;fill-rule:nonzero;stroke:none"
         id="path126"
         inkscape:connector-curvature="0" /></g><g
       id="g128"
       transform="translate(127.2505,53.4727)"><path
         d="M 0,0 H 0.703 L 2.332,-3.857 4.026,0 H 4.15 L 5.857,-3.857 7.517,0 H 8.228 L 5.92,-5.312 H 5.793 L 4.094,-1.509 2.396,-5.312 H 2.269 Z"
         style="fill:#ffffff;fill-opacity:1;fill-rule:nonzero;stroke:none"
         id="path130"
         inkscape:connector-curvature="0" /></g><g
       id="g132"
       transform="translate(135.561,53.4727)"><path
         d="M 0,0 H 0.703 L 2.332,-3.857 4.026,0 H 4.15 L 5.857,-3.857 7.517,0 H 8.228 L 5.92,-5.312 H 5.793 L 4.094,-1.509 2.396,-5.312 H 2.269 Z"
         style="fill:#ffffff;fill-opacity:1;fill-rule:nonzero;stroke:none"
         id="path134"
         inkscape:connector-curvature="0" /></g><g
       id="g136"
       transform="translate(143.8716,53.4727)"><path
         d="M 0,0 H 0.703 L 2.332,-3.857 4.026,0 H 4.15 L 5.857,-3.857 7.517,0 H 8.228 L 5.92,-5.312 H 5.793 L 4.094,-1.509 2.396,-5.312 H 2.269 Z"
         style="fill:#ffffff;fill-opacity:1;fill-rule:nonzero;stroke:none"
         id="path138"
         inkscape:connector-curvature="0" /></g><g
       id="g140"
       transform="translate(153.6519,49.2344)"><path
         d="M 0,0 C 0.166,0 0.308,-0.059 0.425,-0.176 0.542,-0.293 0.601,-0.437 0.601,-0.605 0.601,-0.771 0.542,-0.914 0.425,-1.033 0.308,-1.151 0.166,-1.211 0,-1.211 c -0.166,0 -0.308,0.06 -0.425,0.178 -0.117,0.119 -0.176,0.262 -0.176,0.428 0,0.168 0.059,0.312 0.176,0.429 C -0.308,-0.059 -0.166,0 0,0"
         style="fill:#ffffff;fill-opacity:1;fill-rule:nonzero;stroke:none"
         id="path142"
         inkscape:connector-curvature="0" /></g><path
       d="m 155.566,55.523 h 0.684 V 48.16 h -0.684 z"
       style="fill:#ffffff;fill-opacity:1;fill-rule:nonzero;stroke:none"
       id="path144"
       inkscape:connector-curvature="0" /><g
       id="g146"
       transform="translate(160.2314,52.9502)"><path
         d="m 0,0 c -0.38,0 -0.731,-0.094 -1.054,-0.28 -0.322,-0.188 -0.578,-0.45 -0.767,-0.788 -0.191,-0.338 -0.285,-0.696 -0.285,-1.074 0,-0.373 0.095,-0.731 0.287,-1.072 0.191,-0.342 0.449,-0.607 0.773,-0.798 0.323,-0.19 0.67,-0.285 1.041,-0.285 0.374,0 0.729,0.095 1.063,0.283 0.336,0.189 0.593,0.444 0.773,0.766 0.182,0.321 0.272,0.685 0.272,1.087 0,0.615 -0.204,1.129 -0.608,1.542 C 1.09,-0.206 0.592,0 0,0 M 2.731,0.522 V -4.79 H 2.058 v 0.913 C 1.772,-4.226 1.45,-4.487 1.094,-4.663 0.737,-4.839 0.348,-4.927 -0.075,-4.927 c -0.752,0 -1.395,0.273 -1.927,0.819 -0.532,0.545 -0.798,1.208 -0.798,1.989 0,0.765 0.268,1.419 0.805,1.963 0.537,0.544 1.183,0.815 1.939,0.815 0.436,0 0.83,-0.093 1.184,-0.278 0.353,-0.186 0.664,-0.464 0.93,-0.835 v 0.976 z"
         style="fill:#ffffff;fill-opacity:1;fill-rule:nonzero;stroke:none"
         id="path148"
         inkscape:connector-curvature="0" /></g><g
       id="g150"
       transform="translate(164.2422,53.4727)"><path
         d="m 0,0 h 0.699 v -0.776 c 0.207,0.305 0.428,0.534 0.658,0.686 0.233,0.151 0.473,0.227 0.723,0.227 0.19,0 0.391,-0.061 0.606,-0.181 L 2.33,-0.62 C 2.186,-0.559 2.066,-0.527 1.969,-0.527 1.74,-0.527 1.521,-0.621 1.309,-0.809 1.098,-0.995 0.936,-1.286 0.826,-1.68 0.74,-1.982 0.699,-2.595 0.699,-3.516 V -5.312 H 0 Z"
         style="fill:#ffffff;fill-opacity:1;fill-rule:nonzero;stroke:none"
         id="path152"
         inkscape:connector-curvature="0" /></g><g
       id="g154"
       transform="translate(170.0723,52.9502)"><path
         d="m 0,0 c -0.387,0 -0.746,-0.094 -1.078,-0.28 -0.332,-0.188 -0.594,-0.447 -0.781,-0.778 -0.19,-0.33 -0.284,-0.687 -0.284,-1.071 0,-0.583 0.196,-1.064 0.586,-1.445 0.391,-0.381 0.897,-0.572 1.518,-0.572 0.629,0 1.135,0.189 1.518,0.567 0.38,0.378 0.572,0.874 0.572,1.489 0,0.401 -0.088,0.758 -0.264,1.071 C 1.611,-0.704 1.363,-0.456 1.041,-0.273 0.719,-0.091 0.371,0 0,0 M 2.018,0.522 H 2.701 V -3.711 C 2.701,-4.456 2.635,-5.002 2.506,-5.347 2.326,-5.835 2.016,-6.211 1.572,-6.475 1.131,-6.738 0.598,-6.87 -0.023,-6.87 c -0.457,0 -0.866,0.064 -1.229,0.193 -0.363,0.129 -0.658,0.302 -0.887,0.52 -0.226,0.217 -0.437,0.534 -0.629,0.952 h 0.743 c 0.201,-0.352 0.463,-0.612 0.781,-0.781 0.32,-0.169 0.717,-0.254 1.187,-0.254 0.467,0 0.862,0.087 1.182,0.261 0.32,0.172 0.551,0.391 0.687,0.654 0.137,0.263 0.206,0.686 0.206,1.272 v 0.274 C 1.76,-4.104 1.445,-4.354 1.074,-4.528 0.703,-4.703 0.309,-4.79 -0.109,-4.79 c -0.489,0 -0.948,0.121 -1.379,0.363 -0.43,0.243 -0.762,0.57 -0.996,0.98 -0.235,0.41 -0.352,0.861 -0.352,1.352 0,0.491 0.121,0.949 0.365,1.375 0.246,0.424 0.584,0.761 1.016,1.008 0.432,0.247 0.887,0.371 1.365,0.371 0.399,0 0.768,-0.082 1.111,-0.246 C 1.367,0.248 1.697,-0.022 2.018,-0.4 Z"
         style="fill:#ffffff;fill-opacity:1;fill-rule:nonzero;stroke:none"
         id="path156"
         inkscape:connector-curvature="0" /></g><g
       id="g158"
       transform="translate(174.9902,49.2344)"><path
         d="M 0,0 C 0.166,0 0.307,-0.059 0.424,-0.176 0.541,-0.293 0.6,-0.437 0.6,-0.605 0.6,-0.771 0.541,-0.914 0.424,-1.033 0.307,-1.151 0.166,-1.211 0,-1.211 c -0.166,0 -0.309,0.06 -0.426,0.178 -0.117,0.119 -0.176,0.262 -0.176,0.428 0,0.168 0.059,0.312 0.176,0.429 C -0.309,-0.059 -0.166,0 0,0"
         style="fill:#ffffff;fill-opacity:1;fill-rule:nonzero;stroke:none"
         id="path160"
         inkscape:connector-curvature="0" /></g><g
       id="g162"
       transform="translate(179.1934,55.5234)"><path
         d="m 0,0 v -0.669 c -0.25,0.107 -0.465,0.161 -0.645,0.161 -0.132,0 -0.244,-0.027 -0.332,-0.08 -0.087,-0.055 -0.142,-0.116 -0.166,-0.185 -0.021,-0.071 -0.033,-0.257 -0.033,-0.56 l -0.002,-0.718 h 1.11 v -0.591 h -1.11 l -0.004,-4.721 h -0.683 v 4.721 h -0.698 v 0.591 h 0.698 v 0.83 c 0,0.381 0.035,0.653 0.105,0.816 0.071,0.163 0.19,0.294 0.356,0.393 0.168,0.099 0.371,0.149 0.609,0.149 C -0.574,0.137 -0.309,0.091 0,0"
         style="fill:#ffffff;fill-opacity:1;fill-rule:nonzero;stroke:none"
         id="path164"
         inkscape:connector-curvature="0" /></g><g
       id="g166"
       transform="translate(179.8867,53.4727)"><path
         d="m 0,0 h 0.699 v -0.776 c 0.207,0.305 0.428,0.534 0.658,0.686 0.233,0.151 0.473,0.227 0.723,0.227 0.19,0 0.391,-0.061 0.606,-0.181 L 2.33,-0.62 C 2.186,-0.559 2.066,-0.527 1.969,-0.527 1.74,-0.527 1.521,-0.621 1.309,-0.809 1.098,-0.995 0.936,-1.286 0.826,-1.68 0.74,-1.982 0.699,-2.595 0.699,-3.516 V -5.312 H 0 Z"
         style="fill:#ffffff;fill-opacity:1;fill-rule:nonzero;stroke:none"
         id="path168"
         inkscape:connector-curvature="0" /></g><path
       d="m 243.486,50.567 h -58.064 v -0.222 h 58.064 z"
       style="fill:#ffffff;fill-opacity:1;fill-rule:nonzero;stroke:none"
       id="path170"
       inkscape:connector-curvature="0" /><path
       d="M 219.732,49.493 H 185.421 V 49.27 h 34.311 z"
       style="fill:#ffffff;fill-opacity:1;fill-rule:nonzero;stroke:none"
       id="path172"
       inkscape:connector-curvature="0" /><path
       d="m 223.812,51.643 h -38.39 v -0.222 h 38.39 z"
       style="fill:#ffffff;fill-opacity:1;fill-rule:nonzero;stroke:none"
       id="path174"
       inkscape:connector-curvature="0" /><path
       d="M 230.29,48.382 H 185.422 V 48.159 H 230.29 Z"
       style="fill:#ffffff;fill-opacity:1;fill-rule:nonzero;stroke:none"
       id="path176"
       inkscape:connector-curvature="0" /><path
       d="m 216.374,53.681 h -30.952 v -0.223 h 30.952 z"
       style="fill:#ffffff;fill-opacity:1;fill-rule:nonzero;stroke:none"
       id="path178"
       inkscape:connector-curvature="0" /><path
       d="m 234.447,52.643 h -49.025 v -0.222 h 49.025 z"
       style="fill:#ffffff;fill-opacity:1;fill-rule:nonzero;stroke:none"
       id="path180"
       inkscape:connector-curvature="0" /><path
       d="M 124.358,50.567 H 66.294 v -0.222 h 58.064 z"
       style="fill:#ffffff;fill-opacity:1;fill-rule:nonzero;stroke:none"
       id="path182"
       inkscape:connector-curvature="0" /><path
       d="M 124.358,49.493 H 90.047 V 49.27 h 34.311 z"
       style="fill:#ffffff;fill-opacity:1;fill-rule:nonzero;stroke:none"
       id="path184"
       inkscape:connector-curvature="0" /><path
       d="m 124.358,51.643 h -38.39 v -0.222 h 38.39 z"
       style="fill:#ffffff;fill-opacity:1;fill-rule:nonzero;stroke:none"
       id="path186"
       inkscape:connector-curvature="0" /><path
       d="M 124.358,48.382 H 79.491 v -0.223 h 44.867 z"
       style="fill:#ffffff;fill-opacity:1;fill-rule:nonzero;stroke:none"
       id="path188"
       inkscape:connector-curvature="0" /><path
       d="M 124.358,53.681 H 93.407 v -0.223 h 30.951 z"
       style="fill:#ffffff;fill-opacity:1;fill-rule:nonzero;stroke:none"
       id="path190"
       inkscape:connector-curvature="0" /><path
       d="M 124.358,52.643 H 75.332 v -0.222 h 49.026 z"
       style="fill:#ffffff;fill-opacity:1;fill-rule:nonzero;stroke:none"
       id="path192"
       inkscape:connector-curvature="0" /><g
       id="g194"
       transform="translate(27,188.9102)"><path
         d="m 0,0 h -27 m 282.78,0 h 27 M 0,-155.91 h -27 m 282.78,0 h 27 M 6,6 v 27 m 0,-194.91 v -27 M 249.78,6 v 27 m 0,-194.91 v -27"
         style="fill:none;stroke:#ffffff;stroke-width:1.25;stroke-linecap:butt;stroke-linejoin:miter;stroke-miterlimit:10;stroke-dasharray:none;stroke-opacity:1"
         id="path196"
         inkscape:connector-curvature="0" /></g><g
       id="g198"
       transform="translate(27,188.9102)"><path
         d="m 0,0 h -27 m 282.78,0 h 27 M 0,-155.91 h -27 m 282.78,0 h 27 M 6,6 v 27 m 0,-194.91 v -27 M 249.78,6 v 27 m 0,-194.91 v -27"
         style="fill:none;stroke:#000000;stroke-width:0.25;stroke-linecap:butt;stroke-linejoin:miter;stroke-miterlimit:10;stroke-dasharray:none;stroke-opacity:1"
         id="path200"
         inkscape:connector-curvature="0" /></g></g></svg>